<?xml version="1.0" encoding="utf-8"?>
<!-- Generator: Adobe Illustrator 19.0.0, SVG Export Plug-In . SVG Version: 6.00 Build 0)  -->
<svg version="1.1" id="contact_icon" xmlns="http://www.w3.org/2000/svg" xmlns:xlink="http://www.w3.org/1999/xlink" x="0px" y="0px"
	 viewBox="0 0 72 72" style="fill:white; enable-background:new 0 0 72 72;" xml:space="preserve">
<path id="XMLID_70_" d="M47,31.6c-3.1,2.2-6.9,3.4-11,3.4s-7.9-1.3-11-3.4C13.7,37.9,5.6,53.6,5.6,72h60.8
	C66.4,53.6,58.3,37.9,47,31.6z"/>
<g id="XMLID_2_">
	<circle id="XMLID_150_" cx="36" cy="15.6" r="15.6"/>
</g>
<g id="XMLID_30_">
	<path id="XMLID_82_" d="M149.1,8.7L149.1,8.7c-11.6-11.6-30.5-11.6-42.2,0v0c-11.6,11.6-11.6,30.5,0,42.2L128,72l21.1-21.1
		C160.7,39.3,160.7,20.4,149.1,8.7z M128,41.4c-7.2,0-13.1-5.9-13.1-13.1c0-7.2,5.9-13.1,13.1-13.1c7.2,0,13.1,5.9,13.1,13.1
		C141.1,35.5,135.2,41.4,128,41.4z"/>
</g>
</svg>
