<?xml version="1.0" encoding="utf-8"?>
<!-- Generator: Adobe Illustrator 19.0.0, SVG Export Plug-In . SVG Version: 6.00 Build 0)  -->
<svg version="1.1" id="Layer_1" xmlns="http://www.w3.org/2000/svg" xmlns:xlink="http://www.w3.org/1999/xlink" x="0px" y="0px"
	 viewBox="0 0 72 72" style="enable-background:new 0 0 72 72;" xml:space="preserve">
<style type="text/css">
	.st0{fill:#FFFFFF;}
</style>
<g id="XMLID_29_">
	<path id="XMLID_5_" d="M-56,29.8c-13.7,0-24.7,15.8-24.7,35.3h49.5C-31.3,45.6-42.3,29.8-56,29.8z"/>
	<g id="XMLID_2_">
		<path id="XMLID_73_" d="M-56,33.4c-7.8,0-14.2-6.4-14.2-14.2S-63.8,5-56,5s14.2,6.4,14.2,14.2S-48.2,33.4-56,33.4z"/>
		<path id="XMLID_70_" class="st0" d="M-56,6.5c7,0,12.7,5.7,12.7,12.7c0,7-5.7,12.7-12.7,12.7c-7,0-12.7-5.7-12.7-12.7
			C-68.7,12.2-63,6.5-56,6.5 M-56,3.5c-8.7,0-15.7,7.1-15.7,15.7s7.1,15.7,15.7,15.7s15.7-7.1,15.7-15.7S-47.3,3.5-56,3.5L-56,3.5z"
			/>
	</g>
</g>
<g id="XMLID_76_">
	<path id="XMLID_79_" d="M52.9,14.1L52.9,14.1c-9.3-9.3-24.5-9.3-33.8,0v0c-9.3,9.3-9.3,24.5,0,33.8L36,64.9L52.9,48
		C62.3,38.6,62.3,23.5,52.9,14.1z M36,40.3c-5.8,0-10.5-4.7-10.5-10.5c0-5.8,4.7-10.5,10.5-10.5S46.5,24,46.5,29.8
		C46.5,35.6,41.8,40.3,36,40.3z"/>
	<circle id="XMLID_80_" class="st0" cx="36" cy="29.8" r="10.5"/>
</g>
</svg>
