<?xml version="1.0" encoding="utf-8"?>
<!-- Generator: Adobe Illustrator 19.0.0, SVG Export Plug-In . SVG Version: 6.00 Build 0)  -->
<svg version="1.1" id="pin_icon" xmlns="http://www.w3.org/2000/svg" xmlns:xlink="http://www.w3.org/1999/xlink" x="0px" y="0px"
	 viewBox="0 0 72 72" style="fill:white; enable-background:new 0 0 72 72;" xml:space="preserve">
<path id="XMLID_70_" d="M-45,31.6c-3.1,2.2-6.9,3.4-11,3.4s-7.9-1.3-11-3.4c-11.3,6.3-19.4,22-19.4,40.4h60.8
	C-25.6,53.6-33.7,37.9-45,31.6z"/>
<g id="XMLID_2_">
	<circle id="XMLID_150_" cx="-56" cy="15.6" r="15.6"/>
</g>
<g id="XMLID_30_">
	<path id="XMLID_82_" d="M57.1,8.7L57.1,8.7C45.4-2.9,26.6-2.9,14.9,8.7v0c-11.6,11.6-11.6,30.5,0,42.2L36,72l21.1-21.1
		C68.7,39.3,68.7,20.4,57.1,8.7z M36,41.4c-7.2,0-13.1-5.9-13.1-13.1c0-7.2,5.9-13.1,13.1-13.1s13.1,5.9,13.1,13.1
		C49.1,35.5,43.2,41.4,36,41.4z"/>
</g>
</svg>
